<svg xmlns="http://www.w3.org/2000/svg" xml:space="preserve" width="763.06519" height="773.38934" viewBox="0 0 763.06519 773.38933"><path d="M0 0c0 22.667-18 46.125-43.792 46.125-18.625 0-27.718-8.124-34.375-16.875-11.125-14.625-83.07-85.969-165.403-85.969S-397.82 14.625-408.945 29.25c-6.658 8.751-15.75 16.875-34.375 16.875-25.792 0-43.792-23.458-43.792-46.125 0-39.624 62.273-115.484 161.08-144.725 2.866-8.087 10.811-25.483 31.045-25.483 16.354 0 25.604 12.021 26.354 12.021 1.313 0 6.938-18.355 26.375-18.355 18.647 0 24.772 19.917 26.063 19.917 1 0 7.25-13.687 27.562-13.687 18.661 0 27.54 18.628 30.238 26.412C-61.152-114.092 0-39.263 0 0" style="fill:#231f20;fill-opacity:1;fill-rule:nonzero;stroke:none" transform="matrix(1.33333 0 0 -1.33333 706.173 538)"/><g style="fill:#fff"><path d="M0 0c.666-1.031 1.976-2.535 4.651-2.535 1.5 0 2.094.792 3.5.792 1.407 0 1.917-1.355 1.917-2.688 0-1.333-1.209-3.25-5.042-3.25-4.56 0-9.512 4.787-11.087 6.857-1.92-.24-3.848-.469-5.79-.672 1.689-2.69 8.473-11.602 24.21-11.602 15.897 0 24.245 15.901 25.833 21.344A288.714 288.714 0 0 0 0 0" style="fill:#fff;fill-opacity:1;fill-rule:nonzero;stroke:none" transform="matrix(1.33333 0 0 -1.33333 437.878 742.703)"/></g><g style="fill:#fff"><path d="M0 0c145.116 0 240.134 105.001 240.134 152.376 0 28.375-24.683 42.75-41.25 42.75-17.31 0-20.265-4.686-34.917-20.209C133.134 142.25 74.801 92.626.009 92.626s-133.125 49.624-163.958 82.291c-14.653 15.523-17.608 20.209-34.917 20.209-16.568 0-41.25-14.375-41.25-42.75C-240.116 105.001-145.116 0 0 0" style="fill:#fff;fill-opacity:1;fill-rule:nonzero;stroke:none" transform="matrix(1.33333 0 0 -1.33333 381.401 741.335)"/></g><g style="fill:#000"><path d="M0 0c148.957 0 234.723 108.125 234.723 146.709 0 18.25-14.666 36.52-35.146 36.52-16.625 0-20.728-7.31-29.437-16.52C154.223 149.876 88.405 81.084.015 81.084s-154.223 68.792-170.14 85.625c-8.709 9.21-12.812 16.52-29.437 16.52-20.48 0-35.146-18.27-35.146-36.52C-234.708 108.125-148.958 0 0 0" style="fill:#000;fill-opacity:1;fill-rule:nonzero;stroke:none" transform="matrix(1.33333 0 0 -1.33333 381.413 733.39)"/></g><g style="fill:#fff"><path d="M0 0c-1.674-2.978-3.869-4.889-6.709-5.843-2.776-.928-5.361-.726-7.754.618-2.67 1.499-4.291 3.208-4.816 5.079-.666 2.378.146 5.631 2.415 9.667L-.686 38.315l-10.363 5.823-17.569-31.265c-2.708-4.82-3.215-9.6-1.509-14.204 1.685-4.548 5.559-8.55 11.514-11.895 3.784-2.125 7.465-3.202 10.939-3.202 2.332 0 4.616.485 6.791 1.442 4.508 1.987 8.443 5.93 11.697 11.72l14.999 26.692-9.614 5.403z" style="fill:#fff;fill-opacity:1;fill-rule:nonzero;stroke:none" transform="matrix(1.33333 0 0 -1.33333 224.687 648.92)"/></g><path d="m0 0-15.67 38.999-9.063 2.381-13.371-50.92 9.709-2.547 8.68 33.051L-3.44-18.642l8.019-2.106 13.372 50.915-9.42 2.477z" style="fill:#fff;fill-opacity:1;fill-rule:nonzero;stroke:none" transform="matrix(1.33333 0 0 -1.33333 312.511 679.478)"/><g style="fill:#fff"><path d="m0 0 11.881-.412 1.829 52.611-11.881.411Z" style="fill:#fff;fill-opacity:1;fill-rule:nonzero;stroke:none" transform="matrix(1.33333 0 0 -1.33333 357.822 713.523)"/></g><g style="fill:#fff"><path d="m0 0-41.128-4.989 1.056-8.683 14.721 1.784 5.285-43.575 11.801 1.431-5.284 43.575L.998-8.692z" style="fill:#fff;fill-opacity:1;fill-rule:nonzero;stroke:none" transform="matrix(1.33333 0 0 -1.33333 446.277 638.471)"/></g><g style="fill:#fff"><path d="m0 0-4.603 13.805 15.417 5.139-2.765 8.301-15.418-5.14-3.745 11.238 16.029 5.342-2.769 8.298-27.303-9.1 16.646-49.941 29.345 9.781-2.767 8.301z" style="fill:#fff;fill-opacity:1;fill-rule:nonzero;stroke:none" transform="matrix(1.33333 0 0 -1.33333 493.293 683.876)"/></g><g style="fill:#fff"><path d="m0 0-17.914 29.936 4.941 2.959c4.431 2.649 8.513 3.725 12.102 3.201 4.185-.621 7.85-3.513 10.891-8.597 3.003-5.019 4.161-9.686 3.439-13.87-.724-4.184-3.05-7.4-7.111-9.83zm20.814 34.036c-4.17 6.968-9.705 11.083-16.446 12.234-6.459 1.107-13.521-.597-20.979-5.059l-16.131-9.653 27.034-45.171L9.831-4.315C16.938-.059 21.686 5.299 23.94 11.609c2.552 7.146 1.499 14.692-3.126 22.427" style="fill:#fff;fill-opacity:1;fill-rule:nonzero;stroke:none" transform="matrix(1.33333 0 0 -1.33333 556.16 656)"/></g><path d="M0 0c23.597 17.165 53.723 31.125 89.382 31.125 35.659 0 65.783-13.96 89.376-31.125zm337.185-9.063s2.313-2.687 8.375-2.687c8.813 0 11.75 6.997 11.75 11.937 0 6.438-4.812 10.376-5.75 11.563-.937 1.188-30.187 31.5-31.25 32.75-1.062 1.25-4.75 5.813-10.75 5.813s-12.375-7-12.375-19.188c0-1.296-.381-2.93-.94-4.633-3.329 4.477-6.112 8.25-8.238 10.883-7.544 9.34-42.952 54.68-108.14 79.472-.466 12.836-10.332 32.945-28.739 32.945-15.733 0-31.982-11.453-39.191-17.605-.462.039-.934.066-1.396.102-2.924 8.081-12.612 24.586-19.737 24.586-7.97 0-19.667-17.455-23.091-24.635-.562-.045-1.131-.08-1.69-.129-7.164 6.134-23.484 17.681-39.281 17.681-18.575 0-28.456-20.481-28.753-33.298-64.611-24.867-99.739-69.823-107.247-79.119-2.137-2.646-4.936-6.443-8.287-10.95-.572 1.727-.963 3.387-.963 4.7 0 12.188-6.375 19.188-12.375 19.188s-9.688-4.563-10.75-5.813c-1.063-1.25-30.313-31.562-31.25-32.75-.938-1.187-5.938-6.625-5.75-11.563.187-4.937 2.937-11.937 11.75-11.937 6.062 0 8.375 2.687 8.375 2.687s.282-7.021.001-11.598c-5.971-5.307-12.25-10.115-18.751-13.964 0-47.5 21.875-76.083 50.375-76.083 35.25 0 62.571 39.751 68.375 48.458 2.592 3.89 15.199 23.494 36.417 43.742v-225.867l111.187-71.687 110.646 72.187v226.409c21.878-20.613 34.879-40.828 37.515-44.784 5.804-8.707 33.125-48.458 68.375-48.458 28.5 0 50.375 28.583 50.375 76.083-6.528 3.865-12.833 8.697-18.827 14.03-.274 4.578.005 11.532.005 11.532" style="fill:#231f20;fill-opacity:1;fill-rule:nonzero;stroke:none" transform="matrix(1.33333 0 0 -1.33333 262.257 209.167)"/><g style="fill:#fff"><path d="M0 0c-7.875 0-11.917-5.042-11.917-7.958 0-2.917 1.209-4.292 3.209-4.292S-6.75-11.083-6.75-9.5s1.833 3.083 4.667 3.083c2.833 0 4.666-3.041 4.666-5.333 0-2.292-2.875-7.125-10.791-7.125-3.919 0-10.108 2.832-10.112 9.567-4.638-6.112-6.69-13.888-6.974-18.986 17.532 6.417 37.158 11.329 58.924 13.678C28.487-10.264 14.027 0 0 0" style="fill:#fff;fill-opacity:1;fill-rule:nonzero;stroke:none" transform="matrix(1.33333 0 0 -1.33333 298.357 14.222)"/></g><g style="fill:#fff"><path d="M0 0v-.001c0-6.74-6.192-9.573-10.112-9.573-7.916 0-10.791 4.833-10.791 7.125 0 2.291 1.833 5.333 4.666 5.333 2.834 0 4.667-1.5 4.667-3.083 0-1.584-.042-2.75 1.958-2.75s3.209 1.375 3.209 4.291c0 2.917-4.042 7.959-11.917 7.959-13.927 0-28.286-10.121-33.524-14.526C-30.143-7.5-10.559-12.326 6.953-18.657 6.599-13.556 4.54-5.979 0 0" style="fill:#fff;fill-opacity:1;fill-rule:nonzero;stroke:none" transform="matrix(1.33333 0 0 -1.33333 487.745 26.623)"/></g><g style="fill:#fff"><path d="M0 0c-1.829 0-4.036-1.54-6.274-3.79-1.046-1.062-.928-2.064 1.368-2.064 2.312 0 4.312-.969 4.312-3.938 0-2.937-4.437-7.656-10.125-7.656-3.217 0-4.134.781-4.728 1.419-1.16-1.893-2.047-3.491-2.508-4.435a269.212 269.212 0 0 0 33.958.024C14.653-16.513 6.063 0 0 0" style="fill:#fff;fill-opacity:1;fill-rule:nonzero;stroke:none" transform="matrix(1.33333 0 0 -1.33333 382.58 5.111)"/></g><g style="fill:#fff"><path d="M0 0c.625 0 .208-7.833 9.458-11.75.844-.357-.208-1.292-.666-1.917-.459-.625-11.417-16.666-22.667-27.125-1.575-1.464-4.427-4.114-8.646-4.114-4.219 0-8 2.875-8 8.406 0 5.688 3 8.094 4.688 9.75C-24.146-25.094-1.958-2.406 0 0" style="fill:#fff;fill-opacity:1;fill-rule:nonzero;stroke:none" transform="matrix(1.33333 0 0 -1.33333 70.024 160.167)"/></g><g style="fill:#fff"><path d="M0 0c-.625 0-.209-7.833-9.459-11.75-.844-.357.209-1.292.667-1.917.458-.625 11.417-16.666 22.667-27.125 1.574-1.464 4.427-4.114 8.646-4.114 4.218 0 8 2.875 8 8.406 0 5.688-3 8.094-4.688 9.75C24.146-25.094 1.958-2.406 0 0" style="fill:#fff;fill-opacity:1;fill-rule:nonzero;stroke:none" transform="matrix(1.33333 0 0 -1.33333 692.727 160.167)"/></g><g style="fill:#fff"><path d="M0 0c-.083 4.949.206 10.543.206 10.543-15.562 13.25-26.875 32.917-26.875 33.292s11.563 4.083 11.563 12.646c0 4.062-4.313 8.437-8.48 8.437-4.167 0-10.5-4.395-10.5-18.75 0-1.608.258-5.174.442-7.519C-24.885 27.035-13.292 12.42 0 0" style="fill:#fff;fill-opacity:1;fill-rule:nonzero;stroke:none" transform="matrix(1.33333 0 0 -1.33333 707.73 232.891)"/></g><g style="fill:#fff"><path d="M0 0c13.283 12.397 24.871 26.992 33.636 38.609.185 2.343.451 5.994.451 7.627 0 14.355-6.333 18.75-10.5 18.75s-8.479-4.375-8.479-8.437c0-8.563 11.562-12.271 11.562-12.646S15.358 23.861-.205 10.611c0 0 .292-5.646.205-10.611" style="fill:#fff;fill-opacity:1;fill-rule:nonzero;stroke:none" transform="matrix(1.33333 0 0 -1.33333 55.019 232.982)"/></g><g style="fill:#fff"><path d="M0 0c-1.627-1.864-6.599-6.321-10.793-6.321-3.375 0-5.5 1.687-5.5 3.281s1.375 2.562 2.437 2.562c1.063 0 1.844-.843 3.469-.843 2.271 0 3.314 1.114 3.946 2.142a288.685 288.685 0 0 0-37.334 7.72c2.55-6.675 9.331-20.644 26.544-20.644 8.982 0 19.08 5.482 22.697 11.51C3.634-.415 1.815-.211 0 0" style="fill:#fff;fill-opacity:1;fill-rule:nonzero;stroke:none" transform="matrix(1.33333 0 0 -1.33333 336.304 744.197)"/></g><g style="fill:#fff"><path d="M0 0c-1.195-2.582-5.483-10.097-10.826-10.097-1.75 0-4.313 1.282-4.313 3.563s2.188 3.781 5.032 3.781c4.283 0 5.654 1.519 6.146 2.536-4.762-.239-9.572-.38-14.445-.38-7.41 0-14.69.291-21.847.826 1.735-3.776 9.031-17.367 22.958-17.367C-3.468-17.138 3.382-4.033 5.136.364A315.692 315.692 0 0 0 0 0" style="fill:#fff;fill-opacity:1;fill-rule:nonzero;stroke:none" transform="matrix(1.33333 0 0 -1.33333 405.973 746.038)"/></g><path d="M0 0c0-28.305 22.945-51.25 51.25-51.25S102.5-28.305 102.5 0 79.555 51.25 51.25 51.25 0 28.305 0 0" style="fill:#231f20;fill-opacity:1;fill-rule:nonzero;stroke:none" transform="matrix(1.33333 0 0 -1.33333 0 420)"/><g style="fill:#fff"><path d="M0 0c0-26.611 21.573-48.185 48.185-48.185 26.611 0 48.184 21.574 48.184 48.185 0 26.612-21.573 48.185-48.184 48.185C21.573 48.185 0 26.612 0 0" style="fill:#fff;fill-opacity:1;fill-rule:nonzero;stroke:none" transform="matrix(1.33333 0 0 -1.33333 4.087 420)"/></g><g style="fill:#000"><path d="M0 0c0-23.298 18.887-42.185 42.185-42.185 23.297 0 42.184 18.887 42.184 42.185 0 23.298-18.887 42.185-42.184 42.185C18.887 42.185 0 23.298 0 0" style="fill:#000;fill-opacity:1;fill-rule:nonzero;stroke:none" transform="matrix(1.33333 0 0 -1.33333 12.087 420)"/></g><path d="M0 0c0-28.305 22.945-51.25 51.25-51.25S102.5-28.305 102.5 0 79.555 51.25 51.25 51.25 0 28.305 0 0" style="fill:#231f20;fill-opacity:1;fill-rule:nonzero;stroke:none" transform="matrix(1.33333 0 0 -1.33333 626.399 420)"/><g style="fill:#fff"><path d="M0 0c0-26.611 21.572-48.185 48.185-48.185 26.612 0 48.184 21.574 48.184 48.185 0 26.612-21.572 48.185-48.184 48.185C21.572 48.185 0 26.612 0 0" style="fill:#fff;fill-opacity:1;fill-rule:nonzero;stroke:none" transform="matrix(1.33333 0 0 -1.33333 630.486 420)"/></g><g style="fill:#000"><path d="M0 0c0-23.298 18.887-42.185 42.185-42.185 23.297 0 42.184 18.887 42.184 42.185 0 23.298-18.887 42.185-42.184 42.185C18.887 42.185 0 23.298 0 0" style="fill:#000;fill-opacity:1;fill-rule:nonzero;stroke:none" transform="matrix(1.33333 0 0 -1.33333 638.486 420)"/></g><g style="fill:#fff"><path d="M0 0h-188.404a218.261 218.261 0 0 1-13.81-11.655v-226.97l107.667-69.083 107.375 69.041v227.911A217.235 217.235 0 0 1 0 0" style="fill:#fff;fill-opacity:1;fill-rule:nonzero;stroke:none" transform="matrix(1.33333 0 0 -1.33333 507.031 214)"/></g><path d="M196.307 468.89H398.97v13.583H196.307Z" style="fill:#000;fill-opacity:1;fill-rule:nonzero;stroke:none" transform="matrix(1.33333 0 0 -1.33333 -15.42 948.186)"/><g style="fill:#000"><path d="m0 0-8.167-22.667-15.583 3.75L0 6.333Zm-58.359 20.229v-54.854h31.442l-4.875 14.5 23-5.625h23.125v5.625H2.458v27.25h11.125l3.75 7 3.75-7h11v-27.25h-11.75v-5.625h29v5.625H37.458v27.25h10.813l4 7 3.812-7h10.813v-27.25H55.208v-5.625h28.438v5.625H71.771v27.25h11.062l3.75 7 3.75-7h10.875v-27.25H89.333v-5.625h14.313v-8.875h40.657v54.854z" style="fill:#000;fill-opacity:1;fill-rule:nonzero;stroke:none" transform="matrix(1.33333 0 0 -1.33333 324.135 248.667)"/></g><g style="fill:#000"><path d="M0 0a9.047 9.047 0 0 0-.781-.034c-11.157 0-15.761 8.178-15.761 9.136 0 .958 2.792 2.926 8.542 2.926 3.218 0 6.092-1.487 8-2.798zm-36.081 60.84c0-2.437-1.958-4.114-3.291-4.114-.625 0-2.334.709-2.334 2.667 0 1.959 3.542 7.292 5.959 7.292.562 0-.334-.803-.334-5.845M-46 30.601c-.833 0-4.958 10.959-4.958 11.834h9.917c0-.834-4.125-11.834-4.959-11.834m-7.583 26.125c-1.334 0-3.292 1.677-3.292 4.114 0 5.042-.896 5.845-.333 5.845 2.416 0 5.958-5.333 5.958-7.292 0-1.958-1.708-2.667-2.333-2.667M22.376 78.56l-7.542-13.375 3.167-4.625V46.685H9.709V60.56l3.25 4.625L5.162 78.56l-7.411-13.375L.876 60.56V46.685h-8.25V60.56l3.083 4.625-7.584 13.375-7.594-13.375 3.125-4.625V33.81H0v-7.896c-.219.009-.436.021-.657.021-12.134 0-18.217-7.333-23.092-7.333-1.042 0-2.5.124-2.5 1.541 0 3.5 9.625 5.5 9.625 9 0 1.479-11.688 9.229-11.688 9.792 0 2.583 1.312 4.871 1.312 6.581V55.81c0 9.125 8.375 19.645 9.563 20.041h-11.438l-6.688 15.084-8.5-15.084h-8.062l-8.042 15.084-7.083-15.084h-11.583S-61 50.018-61 40.935c0-7.188-10.219-6.375-10.219-18.583 0-10.168 8.344-13.71 8.344-18.876 0-1.292-.583-2.334-.875-3.167-.292-.833-5.667-11.626-6.042-12.292-.375-.666-1.416-2.624-3.541-2.624s-5.355 2.916-5.355 29.833c0 7.365.594 8.49 1.438 10.084.844 1.593 7.75 13.459 7.75 14.875 0 1.416-9.688-1.313-17.063 26.625-.863 3.272-.625 5.875-1.875 5.875-1.562 0-2.77-5.25-5.27-5.25-3.167 0-4.917 3.208-9.292 3.208-5.813 0-6.25-17.208-14-17.208-3.563 0-7.041 3.166-10.708 3.166-2.292 0 4.416-2.791 6.166-22.541.163-1.833.136-2.313.698-2.313 1.886 0 10.094 12.688 22.656 12.688 2.855 0 5.771-1.251 5.771-3.459 0-5.791-9.375-8.916-9.375-11.291 0-3.209 7.917-1.438 8.354-8.354.22-3.466 1.375-47.396 1.438-50.396.062-3 .187-19.125 12.187-19.125h9.375c0-13.5-2.437-22.75-2.437-30.938 0-11.25 10.75-15.25 10.75-25.937 0-3.834-1-6.126-1-8.334 0-2.208.75-5.938 6.667-5.938 8.27 0 22.145 6.584 22.145 13.147 0 4.437-11.812 16-11.812 22.687 0 4.437 11.084 5.854 11.084 12.187 0 5.188-13.084 15.688-12.834 28.876 0 .968 1.906-1.157 3.25-2.719 1.344-1.563 31.75-33.906 32.562-34.656.813-.75 3.313-3.063 4-3.063 1.646 0 2.938 1.146 2.938 5 0 5.313-1.812 3.938-1.812 15.5 0 9.688 1.812 11.375 1.812 17.375s-2.583 7.312-6.75 7.312c-1.834 0-4.625-.084-4.625 3s1.958 7.041 1.958 10.458c0 1.542-.75 3.209-3.917 3.209-3.083 0-5.083-4.167-8.583-4.167-1.041 0-2.375-.022-2.375.937 0 2.564 7.875 14.813 9 14.813 1.75 0 20.334-8.416 20.334-10.624H0v-61.907c0-1.875 1.75-3.312 5.156-3.312 3.407 0 5.219 1.25 5.219 3.187v64.662c2.481 2.005 4.792 5.309 4.792 10.453 0 2.121.093 4.194-1.234 5.675 2.8 1.246 3.692 4.026 3.692 7.117 0 5.438-2.621 11.763-7.25 15.85v12.15h16.626v26.75l2.791 4.625z" style="fill:#000;fill-opacity:1;fill-rule:nonzero;stroke:none" transform="matrix(1.33333 0 0 -1.33333 438.913 447.58)"/></g><g style="fill:#fff"><path d="M0 0c84.641 0 135.891-74.438 150.641-94.688 12.718-17.463 34.624-46.874 63.999-46.874 31.25 0 48.167 29.249 48.167 70.249-24.25 14.917-43.758 41.046-56.417 58.25C177.557 26.123 111.275 94.854 0 94.854c-111.274 0-177.542-68.731-206.375-107.917-12.659-17.204-32.167-43.333-56.417-58.25 0-41 16.917-70.249 48.167-70.249 29.375 0 51.28 29.411 64 46.874C-135.875-74.438-84.64 0 0 0" style="fill:#fff;fill-opacity:1;fill-rule:nonzero;stroke:none" transform="matrix(1.33333 0 0 -1.33333 381.413 162.917)"/></g><g style="fill:#000"><path d="M0 0c88.807 0 140.625-76.5 157.125-99.333 16.5-22.834 36.167-42.834 57.375-42.834 31.75 0 42.25 37 42.25 61.5-13.5 8.875-32.125 26-51.375 53S120.86 82.667-.015 82.667C-120.89 82.667-186.14-.667-205.39-27.667s-37.875-44.125-51.375-53c0-24.5 10.5-61.5 42.25-61.5 21.208 0 40.875 20 57.375 42.834C-140.64-76.5-88.807 0 0 0" style="fill:#000;fill-opacity:1;fill-rule:nonzero;stroke:none" transform="matrix(1.33333 0 0 -1.33333 381.433 154.778)"/></g><g style="fill:#fff"><path d="M0 0c-.95-.776-2.361-2.404-2.361-3.424 0-.873.753-1.774 1.385-2.377 3.728-3.554 13.582-6.611 20.269-6.293 7.412.355 11.886 4.851 11.95 6.215 0 1.88-1.247 3.674-1.301 3.751a37.77 37.77 0 0 1-18.071 4.573c-4.275 0-8.38-.718-12.214-2.021z" style="fill:#fff;fill-opacity:1;fill-rule:nonzero;stroke:none" transform="matrix(1.33333 0 0 -1.33333 52.506 370.657)"/></g><g style="fill:#fff"><path d="M0 0c2.994 10.498 8.233 17.51 10.769 20.458-1.429 1.522-2.16 3.132-2.16 4.795 0 .444.065.879.172 1.302A38.095 38.095 0 0 1-6.945 10.43C-6.699 9.905-4.439 5.219 0 0" style="fill:#fff;fill-opacity:1;fill-rule:nonzero;stroke:none" transform="matrix(1.33333 0 0 -1.33333 32.546 408.893)"/></g><g style="fill:#fff"><path d="M0 0c0-3.731-5.34-8.391-12.489-9.805-4.169-7.357-8.446-18.18-8.843-28.024.503-.021 1.005-.046 1.52-.046 23.695 0 30.646 20.106 31.476 22.824A38.04 38.04 0 0 1-.019.275C-.016.182 0 .094 0 0" style="fill:#fff;fill-opacity:1;fill-rule:nonzero;stroke:none" transform="matrix(1.33333 0 0 -1.33333 99.496 378.5)"/></g><g style="fill:#fff"><path d="M0 0c0 11.62 4.99 23.061 8.105 29.07-5.866.09-13.888 2.125-19.073 5.402-4.179-4.683-12.097-17.054-12.097-34.054 0-8.897 1.713-16.861 2.996-21.576A37.744 37.744 0 0 1 2-28.249c1.152 0 2.291.061 3.417.161C3.126-23.315 0-14.204 0 0" style="fill:#fff;fill-opacity:1;fill-rule:nonzero;stroke:none" transform="matrix(1.33333 0 0 -1.33333 65.667 430.89)"/></g><g style="fill:#fff"><path d="M0 0c-.515 0-1.015.026-1.519.046.381-13.261 3.675-21.352 5.568-24.948 17.305 3.523 30.326 18.826 30.326 37.17 0 2.972-.353 5.862-1 8.637C29.676 13.282 20.315 0 0 0" style="fill:#fff;fill-opacity:1;fill-rule:nonzero;stroke:none" transform="matrix(1.33333 0 0 -1.33333 73.08 434.333)"/></g><g style="fill:#fff"><path d="M0 0c0 4.1.419 7.894 1.104 11.382a59.265 59.265 0 0 0-7.835 10.444A37.861 37.861 0 0 1-8.869 9.268C-8.869-.98-4.798-10.273 1.807-17.1.841-12.409 0-6.468 0 0" style="fill:#fff;fill-opacity:1;fill-rule:nonzero;stroke:none" transform="matrix(1.33333 0 0 -1.33333 29.58 430.333)"/></g><g style="fill:#fff"><path d="M0 0c.06-.231 6.28-23.126 31.563-23.126.516 0 1.017.025 1.52.046-.396 9.844-4.674 20.667-8.842 28.024-7.15 1.414-12.49 6.074-12.49 9.805 0 .239.029.468.048.7A38.061 38.061 0 0 1-.34-.088Z" style="fill:#fff;fill-opacity:1;fill-rule:nonzero;stroke:none" transform="matrix(1.33333 0 0 -1.33333 648.583 398.165)"/></g><g style="fill:#fff"><path d="M0 0c-.013-.018-1.309-1.85-1.309-3.762.065-1.364 4.539-5.861 11.951-6.215 6.686-.318 16.54 2.738 20.268 6.293.633.602 1.386 1.504 1.386 2.376 0 1.02-1.411 2.648-2.361 3.425l.232.287a37.855 37.855 0 0 1-12.615 2.158c-6.417 0-12.458-1.6-17.757-4.413Z" style="fill:#fff;fill-opacity:1;fill-rule:nonzero;stroke:none" transform="matrix(1.33333 0 0 -1.33333 671.33 373.48)"/></g><g style="fill:#fff"><path d="M0 0c0-1.663-.731-3.272-2.159-4.795 2.535-2.948 7.773-9.96 10.767-20.458 3.774 4.436 5.968 8.48 6.695 9.92A38.095 38.095 0 0 1-.103.969C-.042.651 0 .329 0 0" style="fill:#fff;fill-opacity:1;fill-rule:nonzero;stroke:none" transform="matrix(1.33333 0 0 -1.33333 719.724 375.223)"/></g><g style="fill:#fff"><path d="M0 0c-.504-.02-1.004-.046-1.52-.046-20.985 0-30.277 14.169-33.717 21.636a37.965 37.965 0 0 1-1.169-9.368c0-18.509 13.259-33.913 30.795-37.254C-3.726-21.476-.384-13.36 0 0" style="fill:#fff;fill-opacity:1;fill-rule:nonzero;stroke:none" transform="matrix(1.33333 0 0 -1.33333 692.694 434.272)"/></g><g style="fill:#fff"><path d="M0 0c0 17-7.918 29.371-12.097 34.054-5.184-3.277-13.207-5.312-19.073-5.402 3.115-6.009 8.106-17.45 8.106-29.07 0-14.241-3.143-23.363-5.435-28.126a38.658 38.658 0 0 1 2.922-.123 37.763 37.763 0 0 1 22.702 7.541C-1.608-16.364 0-8.622 0 0" style="fill:#fff;fill-opacity:1;fill-rule:nonzero;stroke:none" transform="matrix(1.33333 0 0 -1.33333 728.835 430.333)"/></g><g style="fill:#fff"><path d="M0 0a58.82 58.82 0 0 0 1.104-11.382c0-6.16-.764-11.84-1.67-16.419C5.656-21.044 9.461-12.024 9.461-2.114c0 4.198-.692 8.233-1.952 12.009A59.372 59.372 0 0 0 0 0" style="fill:#fff;fill-opacity:1;fill-rule:nonzero;stroke:none" transform="matrix(1.33333 0 0 -1.33333 732.697 415.157)"/></g><g style="fill:#fff"><path d="m0 0 17.143-36.191-37.441 11.384-9.146-11.181 40.182-32.865 6.462 7.899-27.4 22.411 36.395-11.411 4.199 5.133L12.851-9.527l27.808-22.744 7.572 9.258L8.052 9.852Z" style="fill:#fff;fill-opacity:1;fill-rule:nonzero;stroke:none" transform="matrix(1.33333 0 0 -1.33333 118.35 211.95)"/></g><g style="fill:#fff"><path d="m0 0-7.594-8.552-7.675 15.446Zm-27.518 14.184 23.175-52.081 7.131 8.048L-3.8-16.225 7.578-3.414l13.543-5.807L29.83.591l-51.329 20.371Z" style="fill:#fff;fill-opacity:1;fill-rule:nonzero;stroke:none" transform="matrix(1.33333 0 0 -1.33333 193.47 188.641)"/></g><g style="fill:#fff"><path d="m0 0 18.046-27.991-39.564 14.156-8.009-5.149 28.074-43.664 8.583 5.521-18.24 28.371 40.426-14.105 7.085 4.552L8.325 5.355Z" style="fill:#fff;fill-opacity:1;fill-rule:nonzero;stroke:none" transform="matrix(1.33333 0 0 -1.33333 242.519 100.407)"/></g><g style="fill:#fff"><path d="M0 0c-.861-.978-2.076-1.969-3.611-2.949C-5.45-4.131-7.314-4.99-9.152-5.501c-5.606-1.559-10.366-1.101-14.181 1.376-3.405 2.214-5.824 5.823-7.188 10.727-1.366 4.914-1.141 9.428.669 13.417 1.982 4.355 5.495 7.181 10.74 8.64 1.95.543 4.138.78 6.653.709 2.022-.047 3.645-.274 4.822-.677l.98-.335 2.589 8.542-.975.281c-2.248.647-4.938.975-7.995.975l-.478-.003c-3.252-.035-6.564-.516-9.842-1.429-7.488-2.082-13.261-6.333-17.161-12.636-3.918-6.328-4.883-13.207-2.869-20.447 2.087-7.497 6.725-12.995 13.787-16.343 4.062-1.929 8.355-2.907 12.76-2.907 2.931 0 5.976.434 9.05 1.289 2.99.831 5.518 1.825 7.514 2.956 1.995 1.131 4.093 2.802 6.237 4.965l.662.668L.746.846z" style="fill:#fff;fill-opacity:1;fill-rule:nonzero;stroke:none" transform="matrix(1.33333 0 0 -1.33333 344.954 121.543)"/></g><g style="fill:#fff"><path d="m0 0-20.333.31.296 19.487-12.09.184-.791-51.903 12.089-.184.359 23.469 20.333-.311-.358-23.469 12.091-.184.793 51.904-12.092.184z" style="fill:#fff;fill-opacity:1;fill-rule:nonzero;stroke:none" transform="matrix(1.33333 0 0 -1.33333 403.158 94.014)"/></g><g style="fill:#fff"><path d="m0 0 2.734 8.208-15.736 5.244 3.683 11.045L7.04 19.044l2.735 8.208-27.833 9.277-16.41-49.246 29.915-9.97 2.736 8.208-18.444 6.146 4.525 13.577z" style="fill:#fff;fill-opacity:1;fill-rule:nonzero;stroke:none" transform="matrix(1.33333 0 0 -1.33333 477.46 122.136)"/></g><g style="fill:#fff"><path d="M0 0c1.365.184 2.888-.187 4.574-1.094 1.553-.839 2.935-2.123 4.101-3.81.367-.543.804-1.321 1.335-2.378l.425-.846 7.87 3.433-.349.895c-.621 1.598-1.746 3.354-3.342 5.221-2.014 2.35-4.348 4.249-6.939 5.644C3.332 9.404-.926 10.303-4.969 9.734c-4.167-.588-7.277-2.744-9.244-6.403a11.942 11.942 0 0 1-1.451-5.506c-.04-1.657.263-3.48.898-5.412.361-1.121 1.098-2.952 2.188-5.435l2.126-4.954c.968-2.201 1.593-3.955 1.853-5.205.419-2.094.222-3.913-.587-5.409-.848-1.576-2.015-2.485-3.569-2.778-1.609-.306-3.364.047-5.24 1.057-1.481.798-3.121 2.451-4.88 4.921-.592.818-1.333 1.993-2.205 3.493l-.475.817-7.714-3.92.26-.811c.619-1.937 1.993-4.067 4.202-6.512 2.164-2.392 4.806-4.436 7.852-6.076 3.593-1.934 7.147-2.914 10.566-2.914.964 0 1.935.078 2.884.232 4.567.74 7.959 3.119 10.084 7.068 1.353 2.508 1.877 5.228 1.559 8.089-.236 1.993-1.006 4.696-2.291 8.04l-3.051 7.86c-1.263 3.143-1.639 4.251-1.737 4.643-.371 1.386-.33 2.511.121 3.345C-2.173-.832-1.251-.166 0 0" style="fill:#fff;fill-opacity:1;fill-rule:nonzero;stroke:none" transform="matrix(1.33333 0 0 -1.33333 523.367 116.124)"/></g><g style="fill:#fff"><path d="m0 0 5.829 6.395-31.393 28.263-5.79-6.43 11.253-10.13-28.943-32.148 8.99-8.091 28.939 32.149z" style="fill:#fff;fill-opacity:1;fill-rule:nonzero;stroke:none" transform="matrix(1.33333 0 0 -1.33333 596.934 174.157)"/></g><g style="fill:#fff"><path d="m0 0 10.709-12.667 6.607 5.586L6.609 5.584l8.888 7.516L26.631-.068l6.606 5.589-18.939 22.403-39.641-33.516L-4.986-29.67l6.609 5.585L-10.93-9.24Z" style="fill:#fff;fill-opacity:1;fill-rule:nonzero;stroke:none" transform="matrix(1.33333 0 0 -1.33333 595.11 213.923)"/></g><g style="fill:#fff"><path d="M0 0c-1.78-1.63-3.666-2.31-5.776-2.089-2.157.224-3.995 1.194-5.62 2.968l-2.792 3.05L-3.07 14.108l2.911-3.179c1.821-1.991 2.832-3.76 3.003-5.257C3.05 3.823 2.093 1.915 0 0m13.612 2.895c-.328 4.126-2.346 8.242-6.001 12.236L-4.918 28.813-43.205-6.241l8.165-8.92 14.969 13.705 3.259-3.56-8.7-22.133 10.109-8.01 7.647 23.718c1.937-.996 4.423-1.363 7.375-1.094 3.363.289 6.513 1.755 9.36 4.359 3.414 3.128 4.972 6.853 4.633 11.071" style="fill:#fff;fill-opacity:1;fill-rule:nonzero;stroke:none" transform="matrix(1.33333 0 0 -1.33333 656.43 259.014)"/></g></svg>